<svg xmlns="http://www.w3.org/2000/svg"  viewBox="0 0 128 128" width="64px" height="64px"><path d="M 64 1 C 29.26 1 1 29.26 1 64 C 1 98.74 29.26 127 64 127 C 98.74 127 127 98.74 127 64 C 127 29.26 98.74 1 64 1 z M 64 7 C 95.43 7 121 32.57 121 64 C 121 95.43 95.43 121 64 121 C 32.57 121 7 95.43 7 64 C 7 32.57 32.57 7 64 7 z M 67.652344 27.519531 C 66.488438 27.634375 65.455078 28.424375 65.080078 29.609375 L 55.050781 61.800781 L 45.349609 65.029297 C 43.779609 65.549297 42.929219 67.250313 43.449219 68.820312 C 43.869219 70.080313 45.040781 70.869141 46.300781 70.869141 C 46.610781 70.869141 46.93 70.820703 47.25 70.720703 L 52.849609 68.849609 L 46.390625 89.599609 C 46.110625 90.509609 46.269844 91.499531 46.839844 92.269531 C 47.409844 93.039531 48.299766 93.490234 49.259766 93.490234 L 82.699219 93.490234 C 84.359219 93.490234 85.699219 92.150234 85.699219 90.490234 C 85.699219 88.830234 84.349219 87.5 82.699219 87.5 L 53.330078 87.5 L 59.869141 66.519531 L 70.859375 62.859375 C 72.429375 62.339375 73.279766 60.640312 72.759766 59.070312 C 72.239766 57.500312 70.540703 56.649922 68.970703 57.169922 L 62.070312 59.470703 L 70.810547 31.400391 C 71.300547 29.820391 70.419844 28.140625 68.839844 27.640625 C 68.442344 27.518125 68.040312 27.48125 67.652344 27.519531 z"/></svg>