<svg id="visual" viewBox="0 0 500 600" width="500" height="600" xmlns="http://www.w3.org/2000/svg" xmlns:xlink="http://www.w3.org/1999/xlink" version="1.1"><g stroke-width="1" stroke-linejoin="bevel"><path d="M257.8 296.7L261.2 347.8L312.8 324.3Z" fill="#165a4a" stroke="#165a4a"></path><path d="M300.8 392.8L334.3 343.3L312.8 324.3Z" fill="#165a4a" stroke="#165a4a"></path><path d="M365.9 306.7L329.3 282.7L312.8 324.3Z" fill="#001d16" stroke="#001d16"></path><path d="M312.8 324.3L329.3 282.7L257.8 296.7Z" fill="#0c4034" stroke="#0c4034"></path><path d="M257.8 296.7L215.2 355.3L261.2 347.8Z" fill="#0a3a2f" stroke="#0a3a2f"></path><path d="M261.2 347.8L300.8 392.8L312.8 324.3Z" fill="#0c4034" stroke="#0c4034"></path><path d="M254.2 453.4L300.8 392.8L261.2 347.8Z" fill="#04221b" stroke="#04221b"></path><path d="M394.9 380.8L365.9 306.7L334.3 343.3Z" fill="#145344" stroke="#145344"></path><path d="M334.3 343.3L365.9 306.7L312.8 324.3Z" fill="#0a3a2f" stroke="#0a3a2f"></path><path d="M300.8 392.8L338.3 388.8L334.3 343.3Z" fill="#165a4a" stroke="#165a4a"></path><path d="M204.2 249.7L202.7 261.7L257.8 296.7Z" fill="#04221b" stroke="#04221b"></path><path d="M257.8 296.7L202.7 261.7L215.2 355.3Z" fill="#0f473a" stroke="#0f473a"></path><path d="M257.8 203.2L204.2 249.7L257.8 296.7Z" fill="#0f473a" stroke="#0f473a"></path><path d="M202.7 261.7L179.7 352.3L215.2 355.3Z" fill="#001d16" stroke="#001d16"></path><path d="M254.2 453.4L271.8 454.4L300.8 392.8Z" fill="#0c4034" stroke="#0c4034"></path><path d="M131.1 353.8L179.7 352.3L120.1 289.3Z" fill="#0f473a" stroke="#0f473a"></path><path d="M245.2 202.6L195.2 244.2L204.2 249.7Z" fill="#0a3a2f" stroke="#0a3a2f"></path><path d="M204.2 249.7L195.2 244.2L202.7 261.7Z" fill="#0c4034" stroke="#0c4034"></path><path d="M285.8 181.6L257.8 203.2L329.3 282.7Z" fill="#001d16" stroke="#001d16"></path><path d="M329.3 282.7L257.8 203.2L257.8 296.7Z" fill="#0a3a2f" stroke="#0a3a2f"></path><path d="M257.8 203.2L245.2 202.6L204.2 249.7Z" fill="#0f473a" stroke="#0f473a"></path><path d="M131.1 353.8L170.7 384.8L179.7 352.3Z" fill="#001d16" stroke="#001d16"></path><path d="M179.7 352.3L170.7 384.8L215.2 355.3Z" fill="#052820" stroke="#052820"></path><path d="M338.3 388.8L394.9 380.8L334.3 343.3Z" fill="#04221b" stroke="#04221b"></path><path d="M394.9 380.8L410.9 299.3L365.9 306.7Z" fill="#165a4a" stroke="#165a4a"></path><path d="M417.9 236.2L350.3 202.6L329.3 282.7Z" fill="#0f473a" stroke="#0f473a"></path><path d="M254.2 453.4L261.2 347.8L215.2 355.3Z" fill="#165a4a" stroke="#165a4a"></path><path d="M300.8 392.8L319.3 466.4L338.3 388.8Z" fill="#04221b" stroke="#04221b"></path><path d="M338.3 388.8L397.9 432.4L394.9 380.8Z" fill="#052820" stroke="#052820"></path><path d="M210.2 456.9L254.2 453.4L215.2 355.3Z" fill="#04221b" stroke="#04221b"></path><path d="M417.9 236.2L329.3 282.7L365.9 306.7Z" fill="#145344" stroke="#145344"></path><path d="M257.8 203.2L285.8 181.6L245.2 202.6Z" fill="#052820" stroke="#052820"></path><path d="M350.3 202.6L285.8 181.6L329.3 282.7Z" fill="#0c4034" stroke="#0c4034"></path><path d="M417.9 236.2L351.3 194.2L350.3 202.6Z" fill="#08342a" stroke="#08342a"></path><path d="M350.3 202.6L351.3 194.2L285.8 181.6Z" fill="#0f473a" stroke="#0f473a"></path><path d="M328.3 488.9L319.3 466.4L271.8 454.4Z" fill="#0a3a2f" stroke="#0a3a2f"></path><path d="M271.8 454.4L319.3 466.4L300.8 392.8Z" fill="#165a4a" stroke="#165a4a"></path><path d="M120.1 289.3L179.7 352.3L202.7 261.7Z" fill="#08342a" stroke="#08342a"></path><path d="M170.7 384.8L210.2 456.9L215.2 355.3Z" fill="#145344" stroke="#145344"></path><path d="M169.7 470.4L210.2 456.9L170.7 384.8Z" fill="#001d16" stroke="#001d16"></path><path d="M254.2 453.4L245.8 480.9L271.8 454.4Z" fill="#0a3a2f" stroke="#0a3a2f"></path><path d="M410.9 299.3L417.9 236.2L365.9 306.7Z" fill="#0c4034" stroke="#0c4034"></path><path d="M366.9 469.9L397.9 432.4L338.3 388.8Z" fill="#052820" stroke="#052820"></path><path d="M394.9 380.8L451.4 366.3L410.9 299.3Z" fill="#08342a" stroke="#08342a"></path><path d="M410.9 299.3L479.4 287.7L417.9 236.2Z" fill="#114d3f" stroke="#114d3f"></path><path d="M136.7 240.2L202.7 261.7L195.2 244.2Z" fill="#0c4034" stroke="#0c4034"></path><path d="M127.1 252.7L120.1 289.3L202.7 261.7Z" fill="#062e25" stroke="#062e25"></path><path d="M210.2 456.9L245.8 480.9L254.2 453.4Z" fill="#0a3a2f" stroke="#0a3a2f"></path><path d="M128.1 198.6L136.7 240.2L195.2 244.2Z" fill="#114d3f" stroke="#114d3f"></path><path d="M128.1 198.6L195.2 244.2L202.2 137.1Z" fill="#165a4a" stroke="#165a4a"></path><path d="M136.7 240.2L127.1 252.7L202.7 261.7Z" fill="#052820" stroke="#052820"></path><path d="M25.6 378.8L128.1 401.4L131.1 353.8Z" fill="#062e25" stroke="#062e25"></path><path d="M131.1 353.8L128.1 401.4L170.7 384.8Z" fill="#0c4034" stroke="#0c4034"></path><path d="M328.3 488.9L366.9 469.9L319.3 466.4Z" fill="#0c4034" stroke="#0c4034"></path><path d="M319.3 466.4L366.9 469.9L338.3 388.8Z" fill="#0a3a2f" stroke="#0a3a2f"></path><path d="M245.8 480.9L328.3 488.9L271.8 454.4Z" fill="#114d3f" stroke="#114d3f"></path><path d="M397.9 432.4L451.4 366.3L394.9 380.8Z" fill="#062e25" stroke="#062e25"></path><path d="M127.1 252.7L110.1 246.2L120.1 289.3Z" fill="#04221b" stroke="#04221b"></path><path d="M120.1 289.3L68.6 300.3L131.1 353.8Z" fill="#0c4034" stroke="#0c4034"></path><path d="M136.7 240.2L110.1 246.2L127.1 252.7Z" fill="#0a3a2f" stroke="#0a3a2f"></path><path d="M128.1 198.6L110.1 246.2L136.7 240.2Z" fill="#08342a" stroke="#08342a"></path><path d="M128.1 401.4L169.7 470.4L170.7 384.8Z" fill="#114d3f" stroke="#114d3f"></path><path d="M210.2 456.9L183.7 499.9L245.8 480.9Z" fill="#062e25" stroke="#062e25"></path><path d="M463.4 354.8L451.4 366.3L500 386.8Z" fill="#0c4034" stroke="#0c4034"></path><path d="M500 340.3L463.4 354.8L500 386.8Z" fill="#052820" stroke="#052820"></path><path d="M451.4 366.3L463.4 354.8L410.9 299.3Z" fill="#0f473a" stroke="#0f473a"></path><path d="M202.2 137.1L195.2 244.2L245.2 202.6Z" fill="#145344" stroke="#145344"></path><path d="M285.8 181.6L202.2 137.1L245.2 202.6Z" fill="#114d3f" stroke="#114d3f"></path><path d="M297.8 108.1L202.2 137.1L285.8 181.6Z" fill="#145344" stroke="#145344"></path><path d="M463.4 354.8L479.4 287.7L410.9 299.3Z" fill="#165a4a" stroke="#165a4a"></path><path d="M183.7 499.9L252.8 521.5L245.8 480.9Z" fill="#114d3f" stroke="#114d3f"></path><path d="M245.8 480.9L252.8 521.5L328.3 488.9Z" fill="#001d16" stroke="#001d16"></path><path d="M127.1 561.5L183.7 499.9L79.6 525.5Z" fill="#052820" stroke="#052820"></path><path d="M169.7 470.4L183.7 499.9L210.2 456.9Z" fill="#0f473a" stroke="#0f473a"></path><path d="M479.4 287.7L464.4 229.2L417.9 236.2Z" fill="#0f473a" stroke="#0f473a"></path><path d="M417.9 236.2L445.4 192.6L351.3 194.2Z" fill="#145344" stroke="#145344"></path><path d="M351.3 194.2L297.8 108.1L285.8 181.6Z" fill="#062e25" stroke="#062e25"></path><path d="M464.4 229.2L445.4 192.6L417.9 236.2Z" fill="#001d16" stroke="#001d16"></path><path d="M62.6 240.7L68.6 300.3L110.1 246.2Z" fill="#08342a" stroke="#08342a"></path><path d="M110.1 246.2L68.6 300.3L120.1 289.3Z" fill="#062e25" stroke="#062e25"></path><path d="M128.1 401.4L105.1 452.9L169.7 470.4Z" fill="#0f473a" stroke="#0f473a"></path><path d="M368.3 101.1L297.8 108.1L351.3 194.2Z" fill="#08342a" stroke="#08342a"></path><path d="M202.2 137.1L184.7 128.6L128.1 198.6Z" fill="#0a3a2f" stroke="#0a3a2f"></path><path d="M177.7 96.1L184.7 128.6L202.2 137.1Z" fill="#165a4a" stroke="#165a4a"></path><path d="M86.6 453.4L105.1 452.9L128.1 401.4Z" fill="#052820" stroke="#052820"></path><path d="M463.4 354.8L500 340.3L479.4 287.7Z" fill="#0f473a" stroke="#0f473a"></path><path d="M479.4 287.7L500 241.2L464.4 229.2Z" fill="#114d3f" stroke="#114d3f"></path><path d="M482.4 420.4L451.4 366.3L397.9 432.4Z" fill="#001d16" stroke="#001d16"></path><path d="M500 340.3L500 284.7L479.4 287.7Z" fill="#0c4034" stroke="#0c4034"></path><path d="M464.4 229.2L500 148.6L445.4 192.6Z" fill="#165a4a" stroke="#165a4a"></path><path d="M391.9 536.5L397.9 432.4L366.9 469.9Z" fill="#145344" stroke="#145344"></path><path d="M483.4 499.9L482.4 420.4L397.9 432.4Z" fill="#062e25" stroke="#062e25"></path><path d="M500 148.6L412.9 134.6L445.4 192.6Z" fill="#165a4a" stroke="#165a4a"></path><path d="M445.4 192.6L412.9 134.6L351.3 194.2Z" fill="#114d3f" stroke="#114d3f"></path><path d="M482.4 420.4L500 386.8L451.4 366.3Z" fill="#165a4a" stroke="#165a4a"></path><path d="M75.6 195.2L62.6 240.7L110.1 246.2Z" fill="#062e25" stroke="#062e25"></path><path d="M75.6 195.2L110.1 246.2L128.1 198.6Z" fill="#0c4034" stroke="#0c4034"></path><path d="M127.1 561.5L190.7 536.5L183.7 499.9Z" fill="#165a4a" stroke="#165a4a"></path><path d="M183.7 499.9L190.7 536.5L252.8 521.5Z" fill="#0f473a" stroke="#0f473a"></path><path d="M500 284.7L500 241.2L479.4 287.7Z" fill="#08342a" stroke="#08342a"></path><path d="M25.6 378.8L86.6 453.4L128.1 401.4Z" fill="#04221b" stroke="#04221b"></path><path d="M79.6 525.5L183.7 499.9L169.7 470.4Z" fill="#001d16" stroke="#001d16"></path><path d="M412.9 134.6L368.3 101.1L351.3 194.2Z" fill="#114d3f" stroke="#114d3f"></path><path d="M84.1 106.1L75.6 195.2L128.1 198.6Z" fill="#0f473a" stroke="#0f473a"></path><path d="M363.3 553.5L391.9 536.5L328.3 488.9Z" fill="#052820" stroke="#052820"></path><path d="M328.3 488.9L391.9 536.5L366.9 469.9Z" fill="#0f473a" stroke="#0f473a"></path><path d="M363.3 553.5L328.3 488.9L305.8 600Z" fill="#04221b" stroke="#04221b"></path><path d="M483.4 499.9L500 426.4L482.4 420.4Z" fill="#08342a" stroke="#08342a"></path><path d="M482.4 420.4L500 426.4L500 386.8Z" fill="#114d3f" stroke="#114d3f"></path><path d="M431.4 79.1L362.9 90.1L368.3 101.1Z" fill="#001d16" stroke="#001d16"></path><path d="M368.3 101.1L362.9 90.1L297.8 108.1Z" fill="#0f473a" stroke="#0f473a"></path><path d="M187.2 73.5L177.7 96.1L202.2 137.1Z" fill="#145344" stroke="#145344"></path><path d="M127.1 561.5L193.2 551.5L190.7 536.5Z" fill="#114d3f" stroke="#114d3f"></path><path d="M190.7 536.5L193.2 551.5L252.8 521.5Z" fill="#0f473a" stroke="#0f473a"></path><path d="M305.8 600L328.3 488.9L252.8 521.5Z" fill="#001d16" stroke="#001d16"></path><path d="M174.7 82.5L177.7 96.1L187.2 73.5Z" fill="#052820" stroke="#052820"></path><path d="M184.7 128.6L84.1 106.1L128.1 198.6Z" fill="#062e25" stroke="#062e25"></path><path d="M187.2 73.5L202.2 137.1L259.8 39.5Z" fill="#0f473a" stroke="#0f473a"></path><path d="M177.7 96.1L84.1 106.1L184.7 128.6Z" fill="#0f473a" stroke="#0f473a"></path><path d="M0 352.8L25.6 378.8L68.6 300.3Z" fill="#062e25" stroke="#062e25"></path><path d="M68.6 300.3L25.6 378.8L131.1 353.8Z" fill="#001d16" stroke="#001d16"></path><path d="M259.8 39.5L202.2 137.1L297.8 108.1Z" fill="#145344" stroke="#145344"></path><path d="M391.9 536.5L483.4 499.9L397.9 432.4Z" fill="#062e25" stroke="#062e25"></path><path d="M500 498.9L483.4 499.9L476.4 548.5Z" fill="#04221b" stroke="#04221b"></path><path d="M500 241.2L500 148.6L464.4 229.2Z" fill="#165a4a" stroke="#165a4a"></path><path d="M412.9 134.6L431.4 79.1L368.3 101.1Z" fill="#0c4034" stroke="#0c4034"></path><path d="M229.2 600L305.8 600L252.8 521.5Z" fill="#145344" stroke="#145344"></path><path d="M476.4 548.5L483.4 499.9L391.9 536.5Z" fill="#0a3a2f" stroke="#0a3a2f"></path><path d="M0 257.7L68.6 300.3L62.6 240.7Z" fill="#001d16" stroke="#001d16"></path><path d="M0 257.7L0 307.3L68.6 300.3Z" fill="#04221b" stroke="#04221b"></path><path d="M500 148.6L500 145.1L412.9 134.6Z" fill="#114d3f" stroke="#114d3f"></path><path d="M0 307.3L0 352.8L68.6 300.3Z" fill="#0a3a2f" stroke="#0a3a2f"></path><path d="M79.6 525.5L105.1 452.9L86.6 453.4Z" fill="#062e25" stroke="#062e25"></path><path d="M307.3 36.5L297.8 108.1L362.9 90.1Z" fill="#001d16" stroke="#001d16"></path><path d="M307.3 36.5L259.8 39.5L297.8 108.1Z" fill="#165a4a" stroke="#165a4a"></path><path d="M369.9 600L391.9 536.5L363.3 553.5Z" fill="#0f473a" stroke="#0f473a"></path><path d="M483.4 499.9L500 498.9L500 426.4Z" fill="#04221b" stroke="#04221b"></path><path d="M193.2 551.5L229.2 600L252.8 521.5Z" fill="#145344" stroke="#145344"></path><path d="M140.7 600L229.2 600L193.2 551.5Z" fill="#0a3a2f" stroke="#0a3a2f"></path><path d="M79.6 525.5L86.6 453.4L54.6 518.9Z" fill="#0a3a2f" stroke="#0a3a2f"></path><path d="M79.6 525.5L169.7 470.4L105.1 452.9Z" fill="#145344" stroke="#145344"></path><path d="M477.4 75.5L431.4 79.1L412.9 134.6Z" fill="#04221b" stroke="#04221b"></path><path d="M365.9 26.5L307.3 36.5L362.9 90.1Z" fill="#0f473a" stroke="#0f473a"></path><path d="M0 417.4L86.6 453.4L25.6 378.8Z" fill="#08342a" stroke="#08342a"></path><path d="M305.8 600L345.3 600L363.3 553.5Z" fill="#0f473a" stroke="#0f473a"></path><path d="M0 227.2L0 257.7L62.6 240.7Z" fill="#165a4a" stroke="#165a4a"></path><path d="M0 227.2L62.6 240.7L75.6 195.2Z" fill="#001d16" stroke="#001d16"></path><path d="M89.1 69.5L84.1 106.1L174.7 82.5Z" fill="#052820" stroke="#052820"></path><path d="M174.7 82.5L84.1 106.1L177.7 96.1Z" fill="#145344" stroke="#145344"></path><path d="M66.6 106.1L84.1 106.1L89.1 69.5Z" fill="#114d3f" stroke="#114d3f"></path><path d="M345.3 600L369.9 600L363.3 553.5Z" fill="#052820" stroke="#052820"></path><path d="M0 160.6L0 227.2L75.6 195.2Z" fill="#0a3a2f" stroke="#0a3a2f"></path><path d="M0 352.8L0 417.4L25.6 378.8Z" fill="#001d16" stroke="#001d16"></path><path d="M0 454.9L54.6 518.9L86.6 453.4Z" fill="#08342a" stroke="#08342a"></path><path d="M124.1 600L140.7 600L127.1 561.5Z" fill="#165a4a" stroke="#165a4a"></path><path d="M424.4 600L476.4 548.5L391.9 536.5Z" fill="#145344" stroke="#145344"></path><path d="M89.1 69.5L174.7 82.5L140.7 0Z" fill="#145344" stroke="#145344"></path><path d="M84.1 106.1L48.6 124.6L75.6 195.2Z" fill="#062e25" stroke="#062e25"></path><path d="M66.6 106.1L48.6 124.6L84.1 106.1Z" fill="#165a4a" stroke="#165a4a"></path><path d="M431.4 79.1L365.9 26.5L362.9 90.1Z" fill="#0a3a2f" stroke="#0a3a2f"></path><path d="M307.3 36.5L267.8 0L259.8 39.5Z" fill="#062e25" stroke="#062e25"></path><path d="M0 417.4L0 454.9L86.6 453.4Z" fill="#052820" stroke="#052820"></path><path d="M124.1 600L127.1 561.5L85.6 600Z" fill="#0c4034" stroke="#0c4034"></path><path d="M127.1 561.5L140.7 600L193.2 551.5Z" fill="#052820" stroke="#052820"></path><path d="M369.9 600L424.4 600L391.9 536.5Z" fill="#165a4a" stroke="#165a4a"></path><path d="M500 145.1L477.4 75.5L412.9 134.6Z" fill="#04221b" stroke="#04221b"></path><path d="M440.4 0L365.9 0L365.9 26.5Z" fill="#114d3f" stroke="#114d3f"></path><path d="M140.7 0L174.7 82.5L187.2 73.5Z" fill="#04221b" stroke="#04221b"></path><path d="M66.6 106.1L28.6 72.5L48.6 124.6Z" fill="#0c4034" stroke="#0c4034"></path><path d="M85.6 600L127.1 561.5L79.6 525.5Z" fill="#165a4a" stroke="#165a4a"></path><path d="M319.3 0L267.8 0L307.3 36.5Z" fill="#0f473a" stroke="#0f473a"></path><path d="M259.8 39.5L195.2 0L187.2 73.5Z" fill="#062e25" stroke="#062e25"></path><path d="M0 100.1L0 160.6L48.6 124.6Z" fill="#052820" stroke="#052820"></path><path d="M48.6 124.6L0 160.6L75.6 195.2Z" fill="#001d16" stroke="#001d16"></path><path d="M365.9 0L319.3 0L365.9 26.5Z" fill="#145344" stroke="#145344"></path><path d="M365.9 26.5L319.3 0L307.3 36.5Z" fill="#0f473a" stroke="#0f473a"></path><path d="M267.8 0L195.2 0L259.8 39.5Z" fill="#062e25" stroke="#062e25"></path><path d="M440.4 0L365.9 26.5L431.4 79.1Z" fill="#062e25" stroke="#062e25"></path><path d="M0 600L85.6 600L54.6 518.9Z" fill="#04221b" stroke="#04221b"></path><path d="M54.6 518.9L85.6 600L79.6 525.5Z" fill="#0f473a" stroke="#0f473a"></path><path d="M424.4 600L500 582.5L476.4 548.5Z" fill="#04221b" stroke="#04221b"></path><path d="M476.4 548.5L500 582.5L500 498.9Z" fill="#0c4034" stroke="#0c4034"></path><path d="M500 145.1L500 50.5L477.4 75.5Z" fill="#114d3f" stroke="#114d3f"></path><path d="M477.4 75.5L440.4 0L431.4 79.1Z" fill="#001d16" stroke="#001d16"></path><path d="M195.2 0L140.7 0L187.2 73.5Z" fill="#145344" stroke="#145344"></path><path d="M89.1 69.5L28.6 72.5L66.6 106.1Z" fill="#114d3f" stroke="#114d3f"></path><path d="M0 454.9L0 531.5L54.6 518.9Z" fill="#062e25" stroke="#062e25"></path><path d="M29.6 0L28.6 72.5L89.1 69.5Z" fill="#08342a" stroke="#08342a"></path><path d="M424.4 600L500 600L500 582.5Z" fill="#062e25" stroke="#062e25"></path><path d="M28.6 72.5L0 100.1L48.6 124.6Z" fill="#001d16" stroke="#001d16"></path><path d="M500 50.5L440.4 0L477.4 75.5Z" fill="#114d3f" stroke="#114d3f"></path><path d="M140.7 0L115.1 0L89.1 69.5Z" fill="#0f473a" stroke="#0f473a"></path><path d="M29.6 0L0 66.5L28.6 72.5Z" fill="#0f473a" stroke="#0f473a"></path><path d="M28.6 72.5L0 66.5L0 100.1Z" fill="#001d16" stroke="#001d16"></path><path d="M500 50.5L500 0L440.4 0Z" fill="#165a4a" stroke="#165a4a"></path><path d="M0 531.5L0 600L54.6 518.9Z" fill="#114d3f" stroke="#114d3f"></path><path d="M115.1 0L29.6 0L89.1 69.5Z" fill="#0f473a" stroke="#0f473a"></path><path d="M29.6 0L0 0L0 66.5Z" fill="#04221b" stroke="#04221b"></path></g></svg>